<svg id="Слой_1" data-name="Слой 1" xmlns="http://www.w3.org/2000/svg" viewBox="0 0 279.16 59.51"><defs><style>.cls-1,.cls-2{fill:white;}.cls-1{fill-rule:evenodd;}.cls-x{fill:#f35ac4}</style></defs><title>x-log-full</title><path class="cls-1" d="M395.4,336.72H410V395.8H350.86V336.72H395.4Zm0,44.54v-30h-30v30Z" transform="translate(-278.18 -336.51)"/><polygon class="cls-1" points="191.93 0.21 206.48 0.21 206.48 14.76 206.48 44.75 206.48 59.3 191.93 59.3 161.94 59.3 147.39 59.3 147.39 44.75 147.39 14.76 147.39 0.21 161.94 0.21 161.94 14.76 161.94 40.77 161.94 44.75 191.93 44.75 191.93 40.77 191.93 14.76 191.93 0.21 191.93 0.21"/><polygon class="cls-x" points="279.16 49.16 259.67 29.75 279.16 10.35 268.81 0 249.3 19.43 229.79 0 219.44 10.35 238.93 29.75 219.44 49.16 229.79 59.51 249.3 40.08 268.81 59.51 279.16 49.16"/><path class="cls-1" d="M327.55,336.51,308,355.93l-19.51-19.42-10.35,10.35,19.49,19.4-19.49,19.4L288.53,396l49.37-49.16Z" transform="translate(-278.18 -336.51)"/><rect class="cls-2" x="320.44" y="378.66" width="14.34" height="14.34" transform="translate(-455.05 8.15) rotate(-45)"/></svg>