<?xml version="1.0" encoding="UTF-8"?>
<!DOCTYPE svg PUBLIC "-//W3C//DTD SVG 1.1//EN" "http://www.w3.org/Graphics/SVG/1.1/DTD/svg11.dtd">
<!-- Creator: CorelDRAW 2017 -->
<svg xmlns="http://www.w3.org/2000/svg" xml:space="preserve" width="139.587mm" height="165.613mm" version="1.1" style="shape-rendering:geometricPrecision; text-rendering:geometricPrecision; image-rendering:optimizeQuality; fill-rule:evenodd; clip-rule:evenodd"
viewBox="0 0 784 931"
 xmlns:xlink="http://www.w3.org/1999/xlink">
 <defs>
  <style type="text/css">
   <![CDATA[
    .fil2 {fill:#1194CC}
    .fil0 {fill:#2B2A29;fill-rule:nonzero}
    .fil1 {fill:#1194CC;fill-rule:nonzero}
   ]]>
  </style>
 </defs>
 <g id="Слой_x0020_1">
  <metadata id="CorelCorpID_0Corel-Layer"/>
  <path class="fil0" d="M138 489c0,-24 0,-48 -1,-72 -2,-103 -4,-202 28,-266 31,-63 80,-107 134,-131 33,-15 69,-22 104,-21 35,1 70,9 102,24 48,24 89,65 115,123 17,38 25,91 28,151 3,58 2,123 1,186l-33 -1c2,-62 3,-126 -1,-184 -3,-56 -11,-105 -25,-139 -22,-51 -58,-86 -99,-107 -27,-14 -57,-21 -87,-21 -30,0 -61,6 -90,18 -47,21 -89,59 -117,115 -28,56 -26,151 -24,250 0,24 1,48 1,72l-33 0z"/>
  <path class="fil0" d="M164 257l1 0c168,-28 178,-29 327,-113l16 -9 7 18c12,30 20,65 22,101 4,51 -3,103 -18,147 -17,46 -44,82 -83,98 -10,4 -22,7 -34,8 -111,8 -148,-143 -168,-227 -19,3 -40,7 -65,11l-1 0 -5 -33zm327 -74c-105,58 -139,74 -223,90 18,75 51,205 133,200 8,-1 16,-2 24,-5 29,-12 50,-41 64,-78 14,-39 20,-87 16,-133 -2,-25 -6,-50 -13,-73z"/>
  <path class="fil1" d="M0 930l2 -227c5,-107 132,-143 240,-174l13 -4 6 12c5,9 13,25 22,44 29,58 75,149 105,182 25,-28 54,-86 83,-143 16,-31 31,-61 46,-87l7 -11 13 4c13,4 28,8 43,12 98,27 188,51 203,146l0 1 0 1c0,41 0,81 0,122 0,41 1,81 0,122l-33 0c0,-41 0,-81 0,-122 0,-40 -1,-80 0,-120 -12,-73 -92,-95 -178,-118 -10,-3 -20,-5 -31,-9 -12,23 -26,48 -39,74 -35,68 -70,138 -102,164l-10 8 -10 -7c-37,-26 -92,-136 -126,-204 -6,-12 -11,-22 -16,-31 -95,27 -199,61 -203,140l-2 225 -33 0z"/>
  <rect class="fil2" x="378" y="784" width="30" height="139"/>
  <path class="fil1" d="M378 783l31 0 0 140 -31 0 0 -140 1 0zm29 1l-29 0 0 137 29 0 0 -137z"/>
 </g>
</svg>
