<?xml version="1.0" encoding="UTF-8"?>
<!DOCTYPE svg PUBLIC "-//W3C//DTD SVG 1.1//EN" "http://www.w3.org/Graphics/SVG/1.1/DTD/svg11.dtd">
<!-- Creator: CorelDRAW 2017 -->
<svg xmlns="http://www.w3.org/2000/svg" xml:space="preserve" width="171.833mm" height="155.126mm" version="1.1" style="shape-rendering:geometricPrecision; text-rendering:geometricPrecision; image-rendering:optimizeQuality; fill-rule:evenodd; clip-rule:evenodd"
viewBox="0 0 1175 1061"
 xmlns:xlink="http://www.w3.org/1999/xlink">
 <defs>
  <style type="text/css">
   <![CDATA[
    .str0 {stroke:#2B2A29;stroke-width:1.36729}
    .fil0 {fill:#2B2A29}
    .fil1 {fill:#1194CC}
   ]]>
  </style>
 </defs>
 <g id="Слой_x0020_1">
  <metadata id="CorelCorpID_0Corel-Layer"/>
  <path class="fil0 str0" d="M1 968c30,30 61,61 91,91 239,-226 253,-312 591,-339 12,-1 23,-2 35,-3 -1,-18 -1,-35 -2,-53 -115,-3 -182,-5 -238,-70 -137,-156 -2,-437 222,-511 186,-61 331,72 309,260 22,2 49,3 71,5 1,-48 -5,-97 -14,-144 -20,-73 -63,-131 -125,-165 -139,-75 -281,-37 -397,51 -126,96 -162,169 -191,322 -40,324 -128,335 -354,554zm87 -39l-26 23 41 44 25 -24 -40 -43zm46 -44l-26 23 41 44 25 -24 -40 -43zm345 -198c-52,-19 -77,-53 -90,-90 -17,61 -25,91 -70,154 62,-46 115,-66 160,-64z"/>
  <path class="fil1" d="M962 385c117,0 212,95 212,212 0,117 -95,212 -212,212 -112,0 -203,-86 -212,-196l142 125 2 1c16,9 32,14 49,13 16,-1 32,-7 45,-20l1 -1 105 -123 0 0c15,-16 21,-34 21,-50 0,-21 -9,-39 -22,-51 -33,-32 -68,-64 -104,-96 -10,-9 -20,-18 -31,-27 1,0 2,0 2,0zm-207 167c16,-74 71,-133 142,-156 20,18 40,36 60,54 35,31 69,62 102,94l0 0c4,3 6,9 6,15 0,5 -2,11 -7,17l0 1 -103 121c-4,4 -9,5 -13,5 -6,0 -12,-2 -19,-5l-167 -147z"/>
 </g>
</svg>
