<?xml version="1.0" encoding="UTF-8"?>
<!DOCTYPE svg PUBLIC "-//W3C//DTD SVG 1.1//EN" "http://www.w3.org/Graphics/SVG/1.1/DTD/svg11.dtd">
<!-- Creator: CorelDRAW 2017 -->
<svg xmlns="http://www.w3.org/2000/svg" xml:space="preserve" width="139.408mm" height="136.861mm" version="1.1" style="shape-rendering:geometricPrecision; text-rendering:geometricPrecision; image-rendering:optimizeQuality; fill-rule:evenodd; clip-rule:evenodd"
viewBox="0 0 780 765"
 xmlns:xlink="http://www.w3.org/1999/xlink">
 <defs>
  <style type="text/css">
   <![CDATA[
    .str0 {stroke:#2B2A29;stroke-width:1.11861}
    .fil1 {fill:#2B2A29}
    .fil0 {fill:#2B2A29;fill-rule:nonzero}
    .fil2 {fill:#1194CC;fill-rule:nonzero}
   ]]>
  </style>
 </defs>
 <g id="Слой_x0020_1">
  <metadata id="CorelCorpID_0Corel-Layer"/>
  <path class="fil0" d="M14 0l766 0 0 531 -214 0c2,-9 3,-18 3,-28l184 0 0 -475 -724 0 0 475 186 0c0,10 1,19 3,28l-217 0 0 -531 14 0zm63 59l641 0 0 419 -151 0c-1,-10 -3,-19 -6,-28l129 0 0 -363 -599 0 0 363 131 0c-3,9 -5,18 -6,28l-153 0 0 -419 14 0z"/>
  <polygon class="fil1 str0" points="257,177 522,177 522,202 257,202 "/>
  <polygon class="fil1 str0" points="292,229 486,229 486,254 292,254 "/>
  <path class="fil2" d="M391 406c26,0 49,10 66,27 17,17 27,40 27,66 0,26 -10,49 -27,66 -17,17 -40,27 -66,27 -26,0 -49,-10 -66,-27 -17,-17 -27,-40 -27,-66 0,-26 10,-49 27,-66 17,-17 40,-27 66,-27zm46 47c-12,-12 -28,-19 -46,-19 -18,0 -34,7 -46,19 -12,12 -19,28 -19,46 0,18 7,34 19,46 12,12 28,19 46,19 18,0 34,-7 46,-19 12,-12 19,-28 19,-46 0,-18 -7,-34 -19,-46z"/>
  <path class="fil2" d="M391 351c41,0 78,17 105,43 27,27 43,64 43,105 0,41 -17,78 -43,105 -27,27 -64,43 -105,43 -41,0 -78,-17 -105,-43 -27,-27 -43,-64 -43,-105 0,-41 17,-78 43,-105 27,-27 64,-43 105,-43zm85 63c-22,-22 -52,-35 -85,-35 -33,0 -63,13 -85,35 -22,22 -35,52 -35,85 0,33 13,63 35,85 22,22 52,35 85,35 33,0 63,-13 85,-35 22,-22 35,-52 35,-85 0,-33 -13,-63 -35,-85z"/>
  <polygon class="fil2" points="419,623 492,711 517,652 585,649 511,558 533,540 641,675 536,679 499,764 398,640 "/>
  <polygon class="fil2" points="384,642 283,765 246,681 141,677 249,542 270,559 197,651 264,654 290,713 363,624 "/>
 </g>
</svg>
