<?xml version="1.0" encoding="UTF-8"?>
<!DOCTYPE svg PUBLIC "-//W3C//DTD SVG 1.1//EN" "http://www.w3.org/Graphics/SVG/1.1/DTD/svg11.dtd">
<!-- Creator: CorelDRAW 2017 -->
<svg xmlns="http://www.w3.org/2000/svg" xml:space="preserve" width="141.115mm" height="129.285mm" version="1.1" style="shape-rendering:geometricPrecision; text-rendering:geometricPrecision; image-rendering:optimizeQuality; fill-rule:evenodd; clip-rule:evenodd"
viewBox="0 0 807 740"
 xmlns:xlink="http://www.w3.org/1999/xlink">
 <defs>
  <style type="text/css">
   <![CDATA[
    .fil0 {fill:#2B2A29;fill-rule:nonzero}
    .fil1 {fill:#1194CC;fill-rule:nonzero}
   ]]>
  </style>
 </defs>
 <g id="Слой_x0020_1">
  <metadata id="CorelCorpID_0Corel-Layer"/>
  <path class="fil0" d="M321 429c-1,0 -2,0 -4,0 -2,0 -5,0 -6,0 -64,12 -55,108 -47,185 4,48 8,89 -6,109 -4,6 -9,10 -15,13 -9,4 -19,3 -29,0 -8,-3 -17,-8 -26,-15 -28,-22 -58,-62 -68,-86 -13,-33 -16,-62 -20,-91 -4,-33 -8,-64 -27,-92 -18,-26 -34,-55 -46,-83 -12,-28 -20,-56 -24,-84 -11,-78 0,-144 28,-193 14,-25 32,-45 53,-60 21,-15 45,-25 72,-30 49,-8 105,3 163,38 58,-35 114,-46 163,-38 27,4 51,15 73,30 21,15 40,36 54,61 4,7 7,14 11,21 -4,0 -7,0 -11,0 -8,0 -16,1 -24,2 -1,-2 -2,-3 -3,-5 -12,-21 -27,-37 -44,-50 -18,-13 -38,-21 -60,-25 -44,-7 -96,4 -150,39l-8 5 -8 -5c-54,-35 -106,-46 -150,-39 -22,4 -42,12 -59,24 -17,12 -32,29 -44,49 -24,42 -34,101 -24,171 4,25 11,50 22,75 11,27 26,53 43,77 24,35 28,70 33,107 3,26 6,53 17,82 8,20 33,53 57,72 6,5 12,8 17,10 3,1 6,2 7,1 0,0 1,-1 1,-1 7,-10 4,-45 0,-86 -8,-90 -19,-204 73,-221 3,-1 7,-1 10,-1 1,0 2,0 3,0l1 0c3,0 6,0 9,1 3,0 6,1 8,1 93,17 82,131 73,221 -4,41 -7,76 0,86 0,1 1,1 1,1 1,1 4,0 7,-1 5,-2 11,-5 17,-10 24,-19 49,-52 57,-72 11,-29 14,-56 17,-82 3,-28 6,-54 17,-80 9,5 19,9 30,12 -10,23 -13,47 -16,72 -3,28 -7,58 -20,91 -9,24 -39,64 -68,86 -9,7 -17,12 -26,15 -10,4 -20,4 -29,0 -6,-3 -11,-7 -15,-13 -14,-20 -10,-61 -6,-109 7,-76 16,-173 -47,-185 -2,0 -4,-1 -6,-1 -2,0 -3,0 -5,0z"/>
  <path class="fil1" d="M614 109c53,0 102,22 137,57 35,35 57,83 57,137 0,53 -22,102 -57,137 -35,35 -83,57 -137,57 -53,0 -102,-22 -137,-57 -35,-35 -57,-83 -57,-137 0,-53 22,-102 57,-137 35,-35 83,-57 137,-57zm116 78c-30,-30 -70,-48 -116,-48 -45,0 -86,18 -116,48 -30,30 -48,70 -48,116 0,45 18,86 48,116 30,30 70,48 116,48 45,0 86,-18 116,-48 30,-30 48,-70 48,-116 0,-45 -18,-86 -48,-116z"/>
  <polygon class="fil1" points="517,284 586,351 700,234 722,255 586,393 496,306 "/>
 </g>
</svg>
