<?xml version="1.0" encoding="UTF-8"?>
<!DOCTYPE svg PUBLIC "-//W3C//DTD SVG 1.1//EN" "http://www.w3.org/Graphics/SVG/1.1/DTD/svg11.dtd">
<!-- Creator: CorelDRAW 2017 -->
<svg xmlns="http://www.w3.org/2000/svg" xml:space="preserve" width="176.957mm" height="108.758mm" version="1.1" style="shape-rendering:geometricPrecision; text-rendering:geometricPrecision; image-rendering:optimizeQuality; fill-rule:evenodd; clip-rule:evenodd"
viewBox="0 0 1236 760"
 xmlns:xlink="http://www.w3.org/1999/xlink">
 <defs>
  <style type="text/css">
   <![CDATA[
    .fil1 {fill:#2B2A29;fill-rule:nonzero}
    .fil0 {fill:#1194CC;fill-rule:nonzero}
   ]]>
  </style>
 </defs>
 <g id="Слой_x0020_1">
  <metadata id="CorelCorpID_0Corel-Layer"/>
  <path class="fil0" d="M1199 666l0 -1 -138 0 0 1 -35 0c-1,-8 -2,-17 -2,-25 0,-35 11,-88 30,-111 9,-12 20,-22 33,-29 -8,-12 -13,-28 -13,-44 0,-19 7,-37 17,-50 8,-9 18,-16 29,-20l0 -141 34 0 0 142c11,4 20,10 28,19 11,13 17,30 17,50 0,19 -6,36 -17,49 9,6 18,14 25,24 18,24 30,76 30,111 0,9 -1,17 -2,25l-35 0zm2 -34c-2,-27 -10,-65 -22,-81 -9,-11 -20,-19 -32,-24 -4,1 -8,1 -12,1 -6,0 -12,-1 -18,-3 -14,3 -27,12 -37,25 -12,16 -20,54 -22,81l142 0zm-77 -142c2,0 4,0 6,0 5,0 11,1 16,1 3,-2 6,-4 8,-7 6,-7 9,-17 9,-27 0,-11 -4,-21 -9,-27 -5,-6 -11,-10 -18,-10 -7,0 -14,4 -18,10 -6,7 -9,17 -9,27 0,11 4,21 9,27 2,2 4,4 6,6z"/>
  <path class="fil1" d="M616 37l-515 195 537 193 492 -192 -514 -196zm-572 179l572 -217c203,78 407,155 610,233l-588 230 -638 -229 44 -17z"/>
  <path class="fil1" d="M932 318l55 0 0 316 0 0c-20,29 -53,54 -97,75 -68,32 -161,51 -264,51 -103,0 -196,-20 -264,-51 -43,-20 -76,-45 -96,-74l0 0 0 0 0 0 0 0 0 -316 21 0 43 0 45 42 -70 -22 -2 289c16,15 47,37 73,49 64,30 152,48 250,48 98,0 186,-18 250,-48 27,-12 54,-34 70,-49l1 0 0 -288 -72 21 57 -41z"/>
 </g>
</svg>
