<?xml version="1.0" encoding="UTF-8"?>
<!DOCTYPE svg PUBLIC "-//W3C//DTD SVG 1.1//EN" "http://www.w3.org/Graphics/SVG/1.1/DTD/svg11.dtd">
<!-- Creator: CorelDRAW 2017 -->
<svg xmlns="http://www.w3.org/2000/svg" xml:space="preserve" width="150.641mm" height="184.792mm" version="1.1" style="shape-rendering:geometricPrecision; text-rendering:geometricPrecision; image-rendering:optimizeQuality; fill-rule:evenodd; clip-rule:evenodd"
viewBox="0 0 1260 1546"
 xmlns:xlink="http://www.w3.org/1999/xlink">
 <defs>
  <style type="text/css">
   <![CDATA[
    .str0 {stroke:#2B2A29;stroke-width:50.1816}
    .fil0 {fill:none}
    .fil1 {fill:#1194CC}
   ]]>
  </style>
 </defs>
 <g id="Слой_x0020_1">
  <metadata id="CorelCorpID_0Corel-Layer"/>
  <path class="fil0 str0" d="M423 632c-110,-77 -253,-17 -267,119"/>
  <path class="fil0 str0" d="M507 1059c-6,0 -14,0 -19,1 -189,33 -52,381 -100,447 -37,52 -150,-71 -173,-127 -43,-105 -16,-194 -77,-277 -54,-74 -94,-157 -106,-238 -51,-327 200,-498 476,-331 276,-167 529,5 478,332 -13,81 -52,164 -106,238 -61,83 -33,172 -77,277 -23,56 -136,178 -173,127 -48,-66 89,-413 -100,-447 -7,-1 -15,-2 -23,-2z"/>
  <path class="fil0 str0" d="M507 1059c-6,0 -14,0 -19,1 -189,33 -52,381 -100,447 -37,52 -150,-71 -173,-127 -43,-105 -16,-194 -77,-277 -54,-74 -94,-157 -106,-238 -51,-327 200,-498 476,-331 276,-167 529,5 478,332 -13,81 -52,164 -106,238 -61,83 -33,172 -77,277 -23,56 -136,178 -173,127 -48,-66 89,-413 -100,-447 -7,-1 -15,-2 -23,-2z"/>
  <rect class="fil1" x="679" y="639" width="58" height="226"/>
  <rect class="fil1" x="1121" y="310" width="58" height="58"/>
  <rect class="fil1" x="1202" y="391" width="58" height="58"/>
  <rect class="fil1" x="1120" y="474" width="58" height="59"/>
  <rect class="fil1" x="1038" y="392" width="58" height="58"/>
  <rect class="fil1" x="761" width="58" height="56"/>
  <rect class="fil1" x="918" y="149" width="58" height="61"/>
  <rect class="fil1" x="759" y="312" width="58" height="60"/>
  <rect class="fil1" x="602" y="150" width="58" height="59"/>
  <rect class="fil1" transform="matrix(2.64845E-14 1 -1 2.64845E-14 820.624 723.008)" width="58" height="226"/>
 </g>
</svg>
