<?xml version="1.0" encoding="UTF-8"?>
<!DOCTYPE svg PUBLIC "-//W3C//DTD SVG 1.1//EN" "http://www.w3.org/Graphics/SVG/1.1/DTD/svg11.dtd">
<!-- Creator: CorelDRAW 2017 -->
<svg xmlns="http://www.w3.org/2000/svg" xml:space="preserve" width="121.604mm" height="138.569mm" version="1.1" style="shape-rendering:geometricPrecision; text-rendering:geometricPrecision; image-rendering:optimizeQuality; fill-rule:evenodd; clip-rule:evenodd"
viewBox="0 0 843 960"
 xmlns:xlink="http://www.w3.org/1999/xlink">
 <defs>
  <style type="text/css">
   <![CDATA[
    .str0 {stroke:#1194CC;stroke-width:41.5885;stroke-linejoin:round}
    .fil0 {fill:#FEFEFE}
    .fil1 {fill:#2B2A29;fill-rule:nonzero}
   ]]>
  </style>
 </defs>
 <g id="Слой_x0020_1">
  <metadata id="CorelCorpID_0Corel-Layer"/>
  <polygon class="fil0 str0" points="456,446 457,156 182,643 367,642 365,940 642,446 "/>
  <g>
   <path class="fil1" d="M313 871c0,12 0,25 0,38 -10,3 -21,2 -32,-2 -11,-4 -22,-10 -34,-18 -37,-27 -77,-77 -89,-106 -11,-27 -17,-53 -21,-78l42 0c4,20 9,41 17,62 10,24 43,65 75,89 8,6 16,10 22,12 4,1 19,6 20,2l0 1zm-188 -253c-5,-29 -9,-34 -28,-60 -24,-33 -44,-67 -60,-103 -15,-34 -26,-69 -31,-103 -15,-97 0,-178 37,-238 18,-30 42,-55 70,-74 28,-19 60,-31 94,-37 64,-10 138,4 214,47 76,-43 150,-57 214,-47 35,5 67,18 95,37 28,19 52,44 70,75 36,60 52,142 37,238 -5,34 -16,69 -31,103 -16,36 -36,70 -60,103 -25,35 -30,72 -35,113 -4,35 -9,71 -26,112 -12,30 -51,79 -89,106 -11,8 -23,14 -34,18 -13,5 -27,9 -39,4 -37,-15 -37,-37 -34,-72 1,-10 2,-19 3,-29l45 -76c0,36 -4,62 -7,97 -2,16 -6,44 18,36 7,-2 14,-7 22,-12 32,-23 65,-64 75,-89 14,-35 19,-69 23,-101 6,-46 11,-89 43,-132 22,-30 41,-62 56,-95 14,-31 24,-62 28,-93 13,-86 0,-158 -31,-210 -15,-25 -35,-46 -58,-62 -23,-16 -50,-26 -78,-30 -58,-9 -126,5 -197,48l-11 6 -11 -6c-71,-43 -139,-57 -197,-48 -29,4 -55,15 -78,30 -23,15 -42,36 -57,61 -32,52 -45,124 -31,210 5,31 15,62 28,93 15,33 34,65 56,95 14,19 18,23 24,42l-29 43zm213 -446c-20,-14 -41,-22 -61,-24 -21,-2 -41,1 -59,9 -18,8 -34,21 -46,38 -12,16 -19,37 -22,60l-41 -4c3,-31 14,-58 29,-80 16,-23 38,-41 63,-52 25,-11 53,-16 81,-13 27,3 55,13 81,31l-24 34z"/>
  </g>
 </g>
</svg>
