<?xml version="1.0" encoding="UTF-8"?>
<!DOCTYPE svg PUBLIC "-//W3C//DTD SVG 1.1//EN" "http://www.w3.org/Graphics/SVG/1.1/DTD/svg11.dtd">
<!-- Creator: CorelDRAW 2017 -->
<svg xmlns="http://www.w3.org/2000/svg" xml:space="preserve" width="218.055mm" height="101.247mm" version="1.1" style="shape-rendering:geometricPrecision; text-rendering:geometricPrecision; image-rendering:optimizeQuality; fill-rule:evenodd; clip-rule:evenodd"
viewBox="0 0 2485 1154"
 xmlns:xlink="http://www.w3.org/1999/xlink">
 <defs>
  <style type="text/css">
   <![CDATA[
    .str0 {stroke:#2B2A29;stroke-width:68.3881}
    .fil0 {fill:none}
    .fil1 {fill:#2B2A29;fill-rule:nonzero}
   ]]>
  </style>
 </defs>
 <g id="Слой_x0020_1">
  <metadata id="CorelCorpID_0Corel-Layer"/>
  <path class="fil0 str0" d="M1242 147c318,-195 437,-108 638,38 205,150 279,173 520,250l-87 50c-147,85 -257,195 -371,308 -140,139 -218,240 -419,291 -177,46 -388,46 -564,0 -198,-51 -277,-150 -419,-291 -114,-113 -225,-224 -371,-308l-87 -50c241,-77 316,-101 520,-250 201,-147 323,-232 638,-39z"/>
  <path class="fil1" d="M2339 468c-222,93 -435,76 -625,61 -191,-15 -329,-39 -477,97 -109,-118 -275,-105 -469,-90 -189,15 -402,31 -624,-62l26 -63c206,87 411,71 592,57 185,-14 347,-27 473,66 127,-101 293,-88 483,-73 182,14 387,31 593,-56l26 63z"/>
 </g>
</svg>
