<?xml version="1.0" encoding="UTF-8"?>
<!DOCTYPE svg PUBLIC "-//W3C//DTD SVG 1.1//EN" "http://www.w3.org/Graphics/SVG/1.1/DTD/svg11.dtd">
<!-- Creator: CorelDRAW 2017 -->
<svg xmlns="http://www.w3.org/2000/svg" xml:space="preserve" width="329.523mm" height="136.79mm" version="1.1" style="shape-rendering:geometricPrecision; text-rendering:geometricPrecision; image-rendering:optimizeQuality; fill-rule:evenodd; clip-rule:evenodd"
viewBox="0 0 10601 4401"
 xmlns:xlink="http://www.w3.org/1999/xlink">
 <defs>
  <style type="text/css">
   <![CDATA[
    .str0 {stroke:#2B2A29;stroke-width:6.43402}
    .fil1 {fill:#2B2A29}
    .fil2 {fill:black}
    .fil0 {fill:#2B2A29;fill-rule:nonzero}
   ]]>
  </style>
 </defs>
 <g id="Слой_x0020_1">
  <metadata id="CorelCorpID_0Corel-Layer"/>
  <path class="fil0" d="M79 0l10522 0 0 4401 -10601 0 0 -4401 79 0zm10365 157l-10286 0 0 4086 10286 0 0 -4086z"/>
  <path class="fil1 str0" d="M7108 953l2607 0 0 2607 -2607 0 0 -2607zm1304 346c558,0 1011,453 1011,1011 0,558 -453,1011 -1011,1011 -528,0 -961,-405 -1007,-921l733 0 0 210 565 0 0 -565 -565 0 0 205 -735 0c31,-531 471,-952 1009,-952z"/>
  <path class="fil2" d="M2386 1913l0 974c0,89 31,101 117,101l587 0c191,0 348,-56 397,-209 60,-186 -16,-374 -166,-418l19 -21c2,-2 5,-4 7,-6 90,-82 120,-181 94,-314 -55,-287 -439,-230 -703,-230 -269,0 -352,-36 -352,122zm-481 -122l-247 1c-75,513 177,1013 -329,1019 -244,3 -337,-94 -339,-334 -3,-228 2,-458 0,-686l-247 1c-19,122 -12,773 15,881 62,243 265,336 560,337 292,1 501,-90 566,-330 46,-168 25,-685 23,-888zm2063 111l0 986c0,96 28,101 119,101 233,0 624,8 839,-3l72 -190 -780 -2c-8,-469 33,-269 499,-322 26,-35 66,-131 77,-185l-574 0 -1 -301 700 -1c25,-47 62,-136 74,-193l-848 0c-116,0 -178,-12 -178,111zm1700 1087c70,-411 -183,-467 382,-456 8,23 215,433 258,451 50,14 201,19 241,-5 23,-21 -104,-204 -118,-229 -40,-70 -109,-172 -135,-239 54,-39 175,-56 217,-215 32,-121 19,-268 -41,-363 -114,-181 -486,-143 -742,-143 -370,0 -305,-77 -305,569 0,762 -57,629 243,629zm13 -660c129,3 260,2 387,1 147,-1 218,-20 220,-175 2,-159 -57,-188 -209,-189 -131,0 -267,-3 -397,1l-2 362zm-3050 469c142,3 331,9 470,0 234,-16 147,-260 111,-292 -64,-57 -326,-38 -429,-36 -190,4 -154,88 -152,329zm0 -509c118,1 235,0 352,0 138,0 212,-5 214,-153 2,-139 -77,-156 -202,-156 -120,0 -243,-2 -364,1l0 308z"/>
 </g>
</svg>
