<?xml version="1.0" encoding="UTF-8"?>
<!DOCTYPE svg PUBLIC "-//W3C//DTD SVG 1.1//EN" "http://www.w3.org/Graphics/SVG/1.1/DTD/svg11.dtd">
<!-- Creator: CorelDRAW 2017 -->
<svg xmlns="http://www.w3.org/2000/svg" xml:space="preserve" width="100.176mm" height="154.736mm" version="1.1" style="shape-rendering:geometricPrecision; text-rendering:geometricPrecision; image-rendering:optimizeQuality; fill-rule:evenodd; clip-rule:evenodd"
viewBox="0 0 583 900"
 xmlns:xlink="http://www.w3.org/1999/xlink">
 <defs>
  <style type="text/css">
   <![CDATA[
    .str0 {stroke:#2B2A29;stroke-width:34.8972}
    .fil1 {fill:none}
    .fil2 {fill:#2B2A29}
    .fil0 {fill:#1194CC}
   ]]>
  </style>
 </defs>
 <g id="Слой_x0020_1">
  <metadata id="CorelCorpID_0Corel-Layer"/>
  <path class="fil0" d="M229 449l-69 -40 20 -35 69 40c10,6 14,19 9,28l0 0c-6,10 -19,13 -29,7zm-78 135l-69 -40 20 -35 69 40c10,6 14,19 9,28l0 0c-6,10 -19,13 -29,7zm36 -66l-68 -39 20 -35 68 39c10,6 14,19 9,28l0 0c-6,10 -19,13 -29,7z"/>
  <rect class="fil1 str0" transform="matrix(-0.866025 -0.5 0.5 -0.866025 208.046 745.421)" width="194" height="523" rx="34" ry="34"/>
  <path class="fil1 str0" d="M412 250l-45 -26c-7,-4 -9,-12 -5,-19l86 -149c4,-7 12,-9 19,-5l45 26c7,4 9,12 5,19l-86 149c-4,7 -12,9 -19,5z"/>
  <rect class="fil2" transform="matrix(-0.934215 -0.53937 0.460365 -0.797376 570.754 131.045)" width="195" height="41" rx="20" ry="20"/>
  <rect class="fil2" transform="matrix(-0.897989 -0.518454 0.422713 -0.73216 395.823 442.305)" width="195" height="41" rx="20" ry="20"/>
  <rect class="fil2" transform="matrix(0.623034 -1.07913 0.819053 0.47288 -7.07317 887.766)" width="195" height="41" rx="20" ry="20"/>
 </g>
</svg>
