<?xml version="1.0" encoding="UTF-8"?>
<!DOCTYPE svg PUBLIC "-//W3C//DTD SVG 1.1//EN" "http://www.w3.org/Graphics/SVG/1.1/DTD/svg11.dtd">
<!-- Creator: CorelDRAW 2017 -->
<svg xmlns="http://www.w3.org/2000/svg" xml:space="preserve" width="153.883mm" height="147.344mm" version="1.1" style="shape-rendering:geometricPrecision; text-rendering:geometricPrecision; image-rendering:optimizeQuality; fill-rule:evenodd; clip-rule:evenodd"
viewBox="0 0 1331 1274"
 xmlns:xlink="http://www.w3.org/1999/xlink">
 <defs>
  <style type="text/css">
   <![CDATA[
    .fil0 {fill:#1194CC}
    .fil1 {fill:#2B2A29;fill-rule:nonzero}
   ]]>
  </style>
 </defs>
 <g id="Слой_x0020_1">
  <metadata id="CorelCorpID_0Corel-Layer"/>
  <path class="fil0" d="M1331 450l-8 -71 -71 8 8 71 71 -8zm-1202 423l-34 -63 63 -34 34 63 -63 34zm-98 -192l-17 -70 70 -17 17 70 -70 17zm-31 -227l8 -71 71 8 -8 71 -71 -8zm66 -238l39 -61 61 39 -39 61 -61 -39zm192 -181l68 -24 24 68 -68 24 -24 -68zm263 -30l70 17 -17 70 -70 -17 17 -70zm288 -5l-70 17 17 70 70 -17 -17 -70zm265 31l-68 -24 -24 68 68 24 24 -68zm192 181l-39 -61 -61 39 39 61 61 -39zm35 466l17 -70 -70 -17 -17 70 70 17zm-98 192l34 -63 -63 -34 -34 63 63 34z"/>
  <path class="fil1" d="M663 797c-1,0 -4,0 -7,0 -4,0 -7,0 -10,1 -104,18 -90,166 -78,284 7,73 14,136 -9,168 -7,9 -15,15 -24,19 -15,6 -31,5 -47,0 -14,-5 -28,-13 -42,-23 -46,-34 -96,-96 -111,-133 -21,-50 -26,-96 -32,-139 -6,-51 -12,-98 -44,-141 -30,-41 -55,-84 -75,-128 -19,-43 -33,-86 -39,-129 -19,-120 0,-222 46,-297 23,-38 52,-69 87,-92 35,-23 74,-39 118,-46 80,-12 172,5 267,59 95,-54 187,-71 267,-59 44,7 84,23 119,46 35,24 65,55 88,93 45,75 65,177 46,297 -7,43 -20,87 -39,129 -20,44 -45,88 -75,128 -32,43 -38,90 -44,141 -6,43 -11,89 -32,139 -15,37 -64,99 -111,133 -14,10 -28,18 -42,23 -17,6 -33,6 -47,0 -9,-4 -18,-10 -24,-19 -23,-31 -16,-95 -9,-168 12,-117 27,-266 -78,-284 -3,-1 -7,-1 -10,-1 -3,0 -6,-1 -8,-1zm-103 -446c-25,-17 -51,-27 -77,-30 -26,-3 -52,1 -74,11 -23,10 -43,26 -57,47 -14,20 -24,46 -27,75l-51 -5c4,-39 17,-72 36,-100 20,-29 48,-51 79,-65 31,-14 66,-19 101,-16 34,4 69,16 101,39l-30 42zm94 395c1,0 2,0 6,0l2 0c5,0 10,0 15,1 5,1 9,1 13,2 152,27 134,201 120,340 -6,63 -12,117 0,132 1,1 1,2 2,2 2,1 6,0 11,-1 8,-3 18,-8 28,-16 40,-29 81,-80 93,-110 18,-44 23,-86 29,-126 7,-58 14,-111 54,-165 28,-38 51,-78 70,-119 17,-39 29,-78 35,-116 17,-107 0,-197 -39,-262 -19,-32 -44,-58 -72,-77 -29,-19 -62,-32 -98,-38 -72,-11 -158,7 -246,60l-13 8 -13 -8c-88,-53 -173,-71 -246,-60 -36,6 -68,18 -97,37 -28,19 -53,45 -72,76 -39,65 -56,155 -39,263 6,38 18,77 35,116 18,41 42,81 70,119 39,54 46,107 54,165 5,40 10,82 29,126 12,30 54,82 93,110 10,7 20,13 28,16 5,2 9,2 11,1 1,0 1,-1 2,-2 11,-16 6,-70 0,-132 -14,-139 -31,-313 120,-340 5,-1 11,-1 16,-1z"/>
 </g>
</svg>
