<?xml version="1.0" encoding="UTF-8"?>
<!DOCTYPE svg PUBLIC "-//W3C//DTD SVG 1.1//EN" "http://www.w3.org/Graphics/SVG/1.1/DTD/svg11.dtd">
<!-- Creator: CorelDRAW 2017 -->
<svg xmlns="http://www.w3.org/2000/svg" xml:space="preserve" width="183.694mm" height="171.042mm" version="1.1" style="shape-rendering:geometricPrecision; text-rendering:geometricPrecision; image-rendering:optimizeQuality; fill-rule:evenodd; clip-rule:evenodd"
viewBox="0 0 1830 1704"
 xmlns:xlink="http://www.w3.org/1999/xlink">
 <defs>
  <style type="text/css">
   <![CDATA[
    .str0 {stroke:#FEFEFE;stroke-width:59.7873}
    .fil1 {fill:none}
    .fil0 {fill:#FEFEFE;fill-rule:nonzero}
   ]]>
  </style>
 </defs>
 <g id="Слой_x0020_1">
  <metadata id="CorelCorpID_0Corel-Layer"/>
  <path class="fil0" d="M999 2c204,19 386,110 523,246 66,66 122,143 163,229l-48 35c-39,-83 -93,-158 -157,-222 -127,-127 -298,-212 -488,-229l6 -58zm-109 1702c-224,-7 -426,-101 -574,-249 -76,-76 -138,-167 -181,-268l57 -15c40,91 96,173 166,242 139,139 329,227 540,232l-6 58z"/>
  <path class="fil1 str0" d="M821 533c-104,-73 -237,-16 -251,111"/>
  <path class="fil0" d="M887 0l-6 0 -5 0 -5 0 -5 0 -5 0 -5 0 -5 0 -5 0 -5 0 -5 1 -6 1 7 58 5 -1 5 0 5 0 5 0 5 0 5 0 5 0 5 0 5 0 5 0 6 0 -2 -58zm-180 26l-6 2 -5 1 -5 1 -5 1 -5 1 -5 1 -5 2 -5 2 -5 2 -5 2 -6 2 19 55 6 -2 5 -1 5 -1 5 -1 5 -1 5 -1 5 -1 5 -1 5 -1 5 -1 6 -2 -15 -57zm-170 64l-2 1 -5 2 -5 2 -5 2 -5 2 -5 2 -5 2 -5 3 -4 3 -4 3 -4 3 -6 3 30 50 5 -3 4 -2 4 -2 4 -2 4 -2 4 -2 4 -2 4 -2 4 -2 4 -2 4 -2 2 -1 -26 -52zm-153 98l-4 4 -4 3 -4 3 -4 3 -4 3 -4 3 -4 3 -4 3 -4 3 -4 3 -4 3 -3 3 40 43 2 -2 4 -3 4 -3 4 -3 4 -3 4 -3 4 -3 4 -3 4 -3 4 -3 4 -3 4 -3 -37 -46zm-129 128l-2 2 -3 4 -3 4 -3 4 -3 4 -3 4 -3 4 -3 4 -3 4 -3 4 -3 4 -4 5 48 33 3 -5 3 -4 3 -4 3 -4 3 -4 3 -4 3 -4 3 -4 3 -4 3 -4 3 -4 2 -2 -46 -37zm-99 152l-3 6 -2 5 -2 5 -2 5 -2 5 -2 5 -2 5 -2 5 -2 5 -2 5 -2 5 -1 2 54 22 1 -2 2 -4 2 -4 2 -4 2 -4 2 -4 2 -4 2 -4 2 -4 2 -4 2 -4 3 -6 -52 -26zm-64 170l-1 2 -1 5 -1 5 -1 5 -1 5 -1 5 -1 5 -1 5 -1 5 -1 5 -1 5 -1 5 58 11 1 -5 1 -5 1 -5 1 -5 1 -5 1 -5 1 -5 1 -5 1 -5 1 -5 1 -5 1 -2 -57 -15zm-27 179l0 3 0 5 0 5 0 5 0 5 0 6 0 6 0 6 0 6 0 5 0 5 0 2 58 -2 0 -2 0 -5 0 -5 0 -5 0 -5 0 -5 0 -5 0 -5 0 -5 0 -5 0 -5 0 -3 -58 -2zm929 886l5 0 5 -1 5 -1 5 -1 5 -1 5 -1 5 -1 5 -1 5 -1 5 -1 5 -1 2 0 -10 -58 -6 1 -5 1 -5 1 -5 1 -5 1 -5 1 -5 1 -5 1 -5 1 -5 0 -5 0 6 58zm178 -35l4 -1 5 -2 5 -2 5 -2 5 -2 5 -2 5 -2 5 -2 5 -2 5 -2 5 -2 4 -1 -21 -54 -3 1 -5 2 -5 2 -5 2 -5 2 -5 2 -5 2 -5 2 -5 2 -5 2 -5 1 -4 1 18 56zm166 -72l4 -2 4 -3 4 -3 4 -3 4 -3 4 -3 4 -3 4 -3 4 -3 4 -3 4 -3 4 -3 -32 -49 -4 2 -4 3 -4 3 -4 3 -4 3 -4 3 -4 3 -4 2 -4 2 -4 2 -4 2 -4 2 29 51zm147 -106l2 -1 4 -3 4 -3 4 -3 4 -3 4 -4 4 -4 4 -4 4 -4 4 -4 4 -4 4 -4 1 -1 -42 -41 -5 5 -3 3 -3 3 -3 3 -3 3 -3 3 -3 3 -3 3 -3 3 -4 3 -4 3 -2 1 39 44zm122 -134l3 -4 3 -4 3 -4 3 -4 3 -4 3 -4 3 -4 3 -4 3 -4 3 -4 3 -4 2 -4 -50 -31 -2 3 -3 4 -3 4 -3 4 -3 4 -3 4 -3 4 -3 4 -3 4 -3 4 -3 4 -3 4 47 34zm91 -157l1 -3 2 -5 2 -5 2 -5 2 -5 2 -5 2 -5 2 -5 2 -5 2 -5 2 -5 2 -4 -55 -20 -2 4 -2 5 -2 5 -2 5 -2 5 -2 5 -2 4 -2 4 -2 4 -2 4 -2 4 -1 3 54 23zm55 -173l1 -6 1 -5 1 -5 1 -5 1 -5 1 -5 1 -5 1 -5 1 -5 1 -5 1 -7 -58 -7 -1 6 -1 5 -1 5 -1 5 -1 5 -1 5 -1 5 -1 5 -1 5 -1 5 -1 5 57 12zm17 -181l0 -3 0 -5 0 -5 0 -5 0 -5 0 -5 0 -5 0 -5 0 -5 0 -5 0 -5 0 -3 -58 5 0 3 0 5 0 5 0 5 0 5 0 5 0 5 0 5 0 5 0 5 0 5 0 3 58 -1z"/>
  <path class="fil0" d="M1703 451c35,0 67,14 90,37 23,23 37,55 37,90 0,35 -14,67 -37,90 -23,23 -55,37 -90,37 -35,0 -67,-14 -90,-37 -23,-23 -37,-55 -37,-90 0,-35 14,-67 37,-90 23,-23 55,-37 90,-37zm49 79c-13,-13 -30,-20 -49,-20 -19,0 -37,8 -49,20 -13,13 -20,30 -20,49 0,19 8,37 20,49 13,13 30,20 49,20 19,0 37,-8 49,-20 13,-13 20,-30 20,-49 0,-19 -8,-37 -20,-49z"/>
  <path class="fil0" d="M128 962c35,0 67,14 90,37 23,23 37,55 37,90 0,35 -14,67 -37,90 -23,23 -55,37 -90,37 -35,0 -67,-14 -90,-37 -23,-23 -37,-55 -37,-90 0,-35 14,-67 37,-90 23,-23 55,-37 90,-37zm49 79c-13,-13 -30,-20 -49,-20 -19,0 -37,8 -49,20 -13,13 -20,30 -20,49 0,19 8,37 20,49 13,13 30,20 49,20 19,0 37,-8 49,-20 13,-13 20,-30 20,-49 0,-19 -8,-37 -20,-49z"/>
  <path class="fil1 str0" d="M899 934c-5,0 -13,0 -18,1 -178,31 -49,358 -94,419 -35,48 -141,-66 -163,-119 -40,-98 -15,-182 -72,-260 -51,-69 -88,-148 -100,-223 -48,-307 187,-467 447,-311 259,-157 497,5 449,312 -12,76 -49,154 -100,223 -57,78 -31,161 -72,260 -22,53 -128,167 -163,119 -45,-62 84,-388 -94,-419 -7,-1 -14,-2 -22,-2z"/>
 </g>
</svg>
