<svg id="Слой_1" data-name="Слой 1" xmlns="http://www.w3.org/2000/svg" viewBox="0 0 360.82 139.59"><title>price-2</title><path d="M269.3,270.89h-3.82v5h3.21a5.13,5.13,0,0,0,2.35-.38,1.26,1.26,0,0,0,.7-1.21v-1.51a1.79,1.79,0,0,0-.54-1.48A3.1,3.1,0,0,0,269.3,270.89Z" transform="translate(-214.18 -222.02)"/><path d="M505.48,263.8a10.3,10.3,0,0,0-6.67,0,2,2,0,0,0-1.08,1.91V274a1.89,1.89,0,0,0,.38,1.2,2,2,0,0,0,1.1.68,7.93,7.93,0,0,0,1.35.28,18.55,18.55,0,0,0,3.22,0,7.55,7.55,0,0,0,1.35-.28,1.81,1.81,0,0,0,1.42-1.88V265.7A2,2,0,0,0,505.48,263.8Z" transform="translate(-214.18 -222.02)"/><path d="M291.23,263.8a10.3,10.3,0,0,0-6.67,0,2,2,0,0,0-1.08,1.91V274a1.89,1.89,0,0,0,.38,1.2,2,2,0,0,0,1.1.68,7.93,7.93,0,0,0,1.35.28,18.55,18.55,0,0,0,3.22,0,7.55,7.55,0,0,0,1.35-.28A1.81,1.81,0,0,0,292.3,274V265.7A2,2,0,0,0,291.23,263.8Z" transform="translate(-214.18 -222.02)"/><path d="M462.56,263.8a10.3,10.3,0,0,0-6.67,0,2,2,0,0,0-1.08,1.91V274a1.89,1.89,0,0,0,.38,1.2,2,2,0,0,0,1.1.68,7.93,7.93,0,0,0,1.35.28,18.55,18.55,0,0,0,3.22,0,7.55,7.55,0,0,0,1.35-.28,1.81,1.81,0,0,0,1.42-1.88V265.7A2,2,0,0,0,462.56,263.8Z" transform="translate(-214.18 -222.02)"/><path d="M270.17,267.79a1.1,1.1,0,0,0,.71-.57,2.64,2.64,0,0,0,.19-1.14v-.93a2.34,2.34,0,0,0-.17-1,1.1,1.1,0,0,0-.71-.48,7.64,7.64,0,0,0-1.7-.14h-3V268h3.1A5.3,5.3,0,0,0,270.17,267.79Z" transform="translate(-214.18 -222.02)"/><path d="M214.18,222V361.61l44.25-44.24H575V222Zm44.16,41.51h-5.77v15.6h-4.52v-15.6h-5.8v-3.22h16.09Zm48.55-9.78a2.92,2.92,0,0,0,.65,1.77,2.57,2.57,0,0,0,3.1,0,2.92,2.92,0,0,0,.65-1.77h3.63a4.12,4.12,0,0,1-1.48,3.3,8.14,8.14,0,0,1-8.7,0,4.12,4.12,0,0,1-1.48-3.3Zm-30.63,21.17a3.38,3.38,0,0,1-1.82,3.25,12.72,12.72,0,0,1-5.66,1H261V260.31h7.63a17.06,17.06,0,0,1,4.16.39,3.52,3.52,0,0,1,2.07,1.25,4,4,0,0,1,.61,2.39v2.32a2.23,2.23,0,0,1-.62,1.48,3.36,3.36,0,0,1-1.47,1v.14a3.53,3.53,0,0,1,2,.94,2.45,2.45,0,0,1,.91,1.84Zm20.56-.95a4.43,4.43,0,0,1-.82,2.69,5.06,5.06,0,0,1-2.28,1.72,15.77,15.77,0,0,1-5.86,1,19.73,19.73,0,0,1-2.88-.2,15.77,15.77,0,0,1-2.74-.7,4.8,4.8,0,0,1-2.41-1.7A4.64,4.64,0,0,1,279,274v-8.24a5,5,0,0,1,.62-2.49,4.92,4.92,0,0,1,1.61-1.74,8.42,8.42,0,0,1,2.15-.93,11.17,11.17,0,0,1,2.38-.46c.67-.06,1.39-.09,2.14-.09a22.28,22.28,0,0,1,2.32.1,15.63,15.63,0,0,1,2.21.42,8.75,8.75,0,0,1,2.29,1,4.73,4.73,0,0,1,1.51,1.62,5,5,0,0,1,.63,2.58Zm20.83,5.16h-4.53V266.05L305,279.13h-4.52V260.31H305v12.87l8.12-12.87h4.53Zm27.31,0h-4.52V263.5H332.9v15.63h-4.52V260.31H345Zm13.14-3.71a6.93,6.93,0,0,1-2.35,3,7.1,7.1,0,0,1-4,1,13.61,13.61,0,0,1-2.52-.29v-3.31c.4.1.8.19,1.2.26a5.84,5.84,0,0,0,1.15.12,2.33,2.33,0,0,0,1.37-.39,3.07,3.07,0,0,0,1-1.2l.41-.85-7.28-13.45h4.73l4.73,9.45h.11l3.74-9.45h4.56Zm23.2-11.89h-5.77v15.6H371v-15.6h-5.79v-3.22H381.3Zm17.34,11.13q0,4.47-7.6,4.47h-7.13V260.31h4.52v6.9h2.27a30.27,30.27,0,0,1,4.42.25,4.79,4.79,0,0,1,2.58,1.1,3.27,3.27,0,0,1,.94,2.56Zm21.53-4.29a10.13,10.13,0,0,1,1.9,2.61l3.34,6.15h-5.08l-3.07-5.54a7.79,7.79,0,0,0-1.18-1.67,3,3,0,0,0-1.26-.77A6.75,6.75,0,0,0,413,271v8.18H408.5V260.31H413v7.42a3.86,3.86,0,0,0,2.05-.48,6.08,6.08,0,0,0,1.72-1.84l3.53-5.1h5.08L421.35,266a12,12,0,0,1-1.7,2,6.16,6.16,0,0,1-1.9,1.12v.05A5.33,5.33,0,0,1,420.17,270.37ZM447.59,275a3.62,3.62,0,0,1-1.95,3.35,11.82,11.82,0,0,1-5.76,1.12,32.77,32.77,0,0,1-6.87-.64v-3.42c1.35.31,2.46.53,3.33.65a19.33,19.33,0,0,0,2.84.19,7.14,7.14,0,0,0,3.05-.45,1.51,1.51,0,0,0,.84-1.43v-1.83a1.11,1.11,0,0,0-.89-1.16,10.51,10.51,0,0,0-2.79-.26h-3.74v-3.22h3.74a7.56,7.56,0,0,0,1.91-.18,1.45,1.45,0,0,0,.87-.5,1.74,1.74,0,0,0,.23-1v-1.48a1.15,1.15,0,0,0-.69-1.19,7.32,7.32,0,0,0-2.53-.29,24.85,24.85,0,0,0-5.8.84v-3.39A35.58,35.58,0,0,1,440,260a12.41,12.41,0,0,1,5.28.82,3,3,0,0,1,1.63,2.86v3a2.09,2.09,0,0,1-.58,1.46,2.8,2.8,0,0,1-1.4.83v.09c1.76.5,2.64,1.44,2.64,2.81Zm20.56-1a4.43,4.43,0,0,1-.82,2.69,5.06,5.06,0,0,1-2.28,1.72,15.77,15.77,0,0,1-5.86,1,19.73,19.73,0,0,1-2.88-.2,15.77,15.77,0,0,1-2.74-.7,4.8,4.8,0,0,1-2.41-1.7,4.64,4.64,0,0,1-.87-2.85v-8.24a5,5,0,0,1,.62-2.49,4.92,4.92,0,0,1,1.61-1.74,8.42,8.42,0,0,1,2.15-.93,11.17,11.17,0,0,1,2.38-.46c.67-.06,1.39-.09,2.14-.09a22.28,22.28,0,0,1,2.32.1,15.63,15.63,0,0,1,2.21.42,8.6,8.6,0,0,1,2.29,1,4.73,4.73,0,0,1,1.51,1.62,5,5,0,0,1,.63,2.58Zm21.41,5.16H485V263.5H480v2.61a27.76,27.76,0,0,1-1,8.29,7.26,7.26,0,0,1-2.53,4,6.58,6.58,0,0,1-3.67,1,4.94,4.94,0,0,1-1-.1c-.35-.07-.6-.11-.76-.13v-3.54a8.06,8.06,0,0,0,1.08.09,2.93,2.93,0,0,0,2.23-.83,6.44,6.44,0,0,0,1.15-3.29,56.56,56.56,0,0,0,.36-7.48v-3.77h13.69ZM511.07,274a4.43,4.43,0,0,1-.82,2.69,5.06,5.06,0,0,1-2.28,1.72,15.77,15.77,0,0,1-5.86,1,19.73,19.73,0,0,1-2.88-.2,15.77,15.77,0,0,1-2.74-.7,4.8,4.8,0,0,1-2.41-1.7,4.64,4.64,0,0,1-.87-2.85v-8.24a5,5,0,0,1,.62-2.49,4.92,4.92,0,0,1,1.61-1.74,8.42,8.42,0,0,1,2.15-.93,11.17,11.17,0,0,1,2.38-.46c.67-.06,1.39-.09,2.14-.09a22.28,22.28,0,0,1,2.32.1,15.63,15.63,0,0,1,2.21.42,8.75,8.75,0,0,1,2.29,1,4.73,4.73,0,0,1,1.51,1.62,5,5,0,0,1,.63,2.58Zm18.3-10.44H523.6v15.6h-4.52v-15.6h-5.8v-3.22h16.09Zm11.69,11.89a6.93,6.93,0,0,1-2.35,3,7.1,7.1,0,0,1-4,1,13.61,13.61,0,0,1-2.52-.29v-3.31c.4.1.8.19,1.2.26a5.74,5.74,0,0,0,1.14.12,2.36,2.36,0,0,0,1.38-.39,3.07,3.07,0,0,0,1-1.2l.41-.85L530,260.31h4.73l4.72,9.45h.12l3.74-9.45h4.55Z" transform="translate(-214.18 -222.02)"/><path d="M393.36,270.75a6.87,6.87,0,0,0-2.46-.32h-2.5v5.48h2.44a4.92,4.92,0,0,0,2.49-.48,1.59,1.59,0,0,0,.79-1.46v-2A1.2,1.2,0,0,0,393.36,270.75Z" transform="translate(-214.18 -222.02)"/></svg>