<svg id="Слой_1" data-name="Слой 1" xmlns="http://www.w3.org/2000/svg" viewBox="0 0 405.82 139.59"><style>.pink{fill:#f559c4}</style><path class="pink" d="M502.76 267.79a1.1 1.1 0 0 0 .71-.57 2.64 2.64 0 0 0 .19-1.14v-.93a2.34 2.34 0 0 0-.17-1 1.1 1.1 0 0 0-.71-.48 7.64 7.64 0 0 0-1.7-.14h-3V268h3.11a5.3 5.3 0 0 0 1.57-.21zm-17.49-3.97a7.32 7.32 0 0 0-2.58-.29h-2.81v6.38h2.87a5.37 5.37 0 0 0 2.5-.42 1.53 1.53 0 0 0 .72-1.44v-3a1.17 1.17 0 0 0-.7-1.23zm-173.7-.02a10.3 10.3 0 0 0-6.67 0 2 2 0 0 0-1.08 1.91V274a1.89 1.89 0 0 0 .38 1.2 2 2 0 0 0 1.1.68 7.93 7.93 0 0 0 1.35.28 18.55 18.55 0 0 0 3.22 0 7.93 7.93 0 0 0 1.35-.28 2 2 0 0 0 1.06-.68 1.94 1.94 0 0 0 .36-1.2v-8.3a2 2 0 0 0-1.07-1.9zm-20.33 7.53a7 7 0 0 0-2.47-.32h-2.49v4.9h2.43a5 5 0 0 0 2.5-.48A1.6 1.6 0 0 0 292 274v-1.42a1.2 1.2 0 0 0-.76-1.25zm94.88-.58a6.87 6.87 0 0 0-2.46-.32h-2.29v5.48h2.23a5 5 0 0 0 2.5-.48 1.6 1.6 0 0 0 .78-1.46v-2a1.2 1.2 0 0 0-.76-1.22zm115.77.14h-3.83v5h3.22a5.15 5.15 0 0 0 2.35-.38 1.26 1.26 0 0 0 .7-1.21v-1.51a1.79 1.79 0 0 0-.54-1.48 3.1 3.1 0 0 0-1.9-.42z" transform="translate(-192.18 -222.02)"/><path class="pink" d="M367.79 42.06l-2.37 7.08h4.87l-2.38-7.08h-.12z"/><path class="pink" d="M230.05 270.89h-3.83v5h3.22a5.18 5.18 0 0 0 2.35-.38 1.27 1.27 0 0 0 .69-1.21v-1.51a1.79 1.79 0 0 0-.53-1.48 3.1 3.1 0 0 0-1.9-.42zm.87-3.1a1.13 1.13 0 0 0 .71-.57 2.8 2.8 0 0 0 .19-1.14v-.93a2.18 2.18 0 0 0-.18-1 1.05 1.05 0 0 0-.71-.48 7.48 7.48 0 0 0-1.69-.14h-3V268h3.1a5.33 5.33 0 0 0 1.58-.21z" transform="translate(-192.18 -222.02)"/><path class="pink" d="M192.18 222v139.61l44.25-44.24H598V222zM237 274.92a3.37 3.37 0 0 1-1.83 3.25 12.67 12.67 0 0 1-5.65 1h-7.82v-18.86h7.62a17 17 0 0 1 4.16.39 3.58 3.58 0 0 1 2.08 1.25 4.1 4.1 0 0 1 .61 2.39v2.32a2.19 2.19 0 0 1-.63 1.48 3.28 3.28 0 0 1-1.46 1v.14a3.56 3.56 0 0 1 2 .94A2.48 2.48 0 0 1 237 272zm17.51 3.86a29.74 29.74 0 0 1-6.09.64 19.22 19.22 0 0 1-2.27-.12 14.52 14.52 0 0 1-2.19-.43 7.7 7.7 0 0 1-2.21-.91 4.69 4.69 0 0 1-2-4v-8.26q0-5.68 8.72-5.68a37.08 37.08 0 0 1 6 .64v3.39a25.71 25.71 0 0 0-5.92-.81c-.71 0-1.27 0-1.66.05a5 5 0 0 0-1.24.3 1.93 1.93 0 0 0-1.36 2.05v8q0 2.55 4.67 2.55a26.75 26.75 0 0 0 5.62-.84zm17.55.35h-14.64v-18.82h14.36v3.22H262v4.32h8.87v3.22H262v4.84h10.12zm24.45-4.47q0 4.47-7.6 4.47h-7.14v-18.82h13.37v3.22h-8.84v4.26h2.81a23.23 23.23 0 0 1 4.18.3 4.52 4.52 0 0 1 2.39 1.16 3.42 3.42 0 0 1 .83 2.46zm20.64-.69a4.43 4.43 0 0 1-.82 2.69 5.06 5.06 0 0 1-2.28 1.72 15.77 15.77 0 0 1-5.86 1 19.73 19.73 0 0 1-2.88-.2 15.77 15.77 0 0 1-2.74-.7 4.8 4.8 0 0 1-2.41-1.7 4.64 4.64 0 0 1-.87-2.85v-8.24a5 5 0 0 1 .62-2.49 4.92 4.92 0 0 1 1.61-1.74 8.42 8.42 0 0 1 2.15-.93 11.17 11.17 0 0 1 2.38-.46c.67-.06 1.39-.09 2.14-.09a22.41 22.41 0 0 1 2.32.1 15.63 15.63 0 0 1 2.21.42 8.75 8.75 0 0 1 2.29 1 4.73 4.73 0 0 1 1.51 1.62 5 5 0 0 1 .63 2.58zm20.71 5.16h-4.52v-8.06h-8v8.06h-4.52v-18.82h4.52v7.54h8v-7.54h4.52zm13.14-3.71a7 7 0 0 1-2.35 3 7.12 7.12 0 0 1-4 1 13.79 13.79 0 0 1-2.52-.29v-3.31c.41.1.81.19 1.21.26a5.67 5.67 0 0 0 1.14.12 2.38 2.38 0 0 0 1.38-.39 3.07 3.07 0 0 0 1-1.2l.41-.85-7.27-13.45h4.72l4.73 9.45h.12l3.74-9.45h4.55zm23 3.36a29.81 29.81 0 0 1-6.09.64 19.1 19.1 0 0 1-2.27-.12 14.52 14.52 0 0 1-2.19-.43 7.7 7.7 0 0 1-2.21-.91 4.73 4.73 0 0 1-2.06-4v-8.26q0-5.68 8.73-5.68a37.08 37.08 0 0 1 6 .64v3.39a25.78 25.78 0 0 0-5.92-.81c-.71 0-1.27 0-1.67.05a5 5 0 0 0-1.23.3 1.93 1.93 0 0 0-1.36 2.05v8c0 1.7 1.55 2.55 4.67 2.55a26.75 26.75 0 0 0 5.62-.84zm17.43-4.12q0 4.47-7.6 4.47h-6.93v-18.82h4.53v6.9h2.38a27.28 27.28 0 0 1 4.17.26 4.78 4.78 0 0 1 2.52 1.12 3.26 3.26 0 0 1 .93 2.53zm7.4 4.47h-4.53v-18.82h4.53zm23.49-7.66h-4.93v5.22h-2.93v-5.22h-4.9v-2.93h4.9v-5.19h2.93v5.19h4.93zm27.78 7.66h-4.53v-8.06h-8v8.06H433v-18.82h4.52v7.54h8v-7.54h4.53zm21.23 0h-4.53v-13.08l-8.12 13.08h-4.52v-18.82h4.52v12.87l8.12-12.87h4.53zm19.05-10.93a4.71 4.71 0 0 1-.8 2.9 4.41 4.41 0 0 1-2.52 1.48 19.86 19.86 0 0 1-4.66.43h-2.49v6.12h-4.52v-18.82h7.54a19.4 19.4 0 0 1 4.36.38 4.07 4.07 0 0 1 2.35 1.31 4.2 4.2 0 0 1 .74 2.63zm18.5 6.72a3.37 3.37 0 0 1-1.83 3.25 12.64 12.64 0 0 1-5.65 1h-7.83v-18.86h7.63a17.12 17.12 0 0 1 4.16.39 3.55 3.55 0 0 1 2.04 1.3 4 4 0 0 1 .61 2.39v2.32a2.23 2.23 0 0 1-.62 1.48 3.36 3.36 0 0 1-1.47 1v.14a3.53 3.53 0 0 1 2 .94 2.45 2.45 0 0 1 .91 1.84zm15.81 4.21l-1.69-5h-6.9l-1.65 5H510l7-18.82h5.51l6.79 18.82zm23.72 0h-4.53v-8.06h-8v8.06h-4.52v-18.82h4.52v7.54h8v-7.54h4.53zm16.76 0l-1.68-5h-6.88l-1.65 5h-4.46l7-18.82h5.51l6.78 18.82z" transform="translate(-192.18 -222.02)"/><path class="pink" d="M327.31 42.06l-2.38 7.08h4.87l-2.37-7.08h-.12z"/></svg>