<svg id="Слой_1" data-name="Слой 1" xmlns="http://www.w3.org/2000/svg" viewBox="0 0 279.16 59.51"><defs><style>.cls-1{fill:#fff;fill-rule:evenodd}</style></defs><path class="cls-1" d="M395.4 336.72H410v59.08h-59.14v-59.08h44.54zm0 44.54v-30h-30v30z" transform="translate(-278.18 -336.51)"/><path class="cls-1" d="M191.93.21h14.55V59.3h-59.09V.21h14.55v44.54h29.99V.21z"/><path fill="#f35ac4" d="M279.16 49.16l-19.49-19.41 19.49-19.4L268.81 0 249.3 19.43 229.79 0l-10.35 10.35 19.49 19.4-19.49 19.41 10.35 10.35 19.51-19.43 19.51 19.43 10.35-10.35z"/><path class="cls-1" d="M327.55 336.51L308 355.93l-19.51-19.42-10.35 10.35 19.49 19.4-19.49 19.4L288.53 396l49.37-49.16z" transform="translate(-278.18 -336.51)"/><path transform="rotate(-45 -217.687 553.369)" fill="#fff" d="M320.44 378.66h14.34V393h-14.34z"/></svg>