<svg id="Слой_1" data-name="Слой 1" xmlns="http://www.w3.org/2000/svg" viewBox="0 0 288.48 139.59"><title>price-1</title><path d="M499.14,273.79a1.15,1.15,0,0,0,.71-.56,2.72,2.72,0,0,0,.19-1.15v-.93a2.18,2.18,0,0,0-.18-1,1.05,1.05,0,0,0-.71-.48,7.48,7.48,0,0,0-1.69-.14h-3V274h3.1A5.33,5.33,0,0,0,499.14,273.79Z" transform="translate(-276.52 -228.02)"/><path d="M389.9,273.79a1.15,1.15,0,0,0,.71-.56,2.88,2.88,0,0,0,.19-1.15v-.93a2.18,2.18,0,0,0-.18-1,1.05,1.05,0,0,0-.71-.48,7.54,7.54,0,0,0-1.69-.14h-3V274h3.1A5.33,5.33,0,0,0,389.9,273.79Z" transform="translate(-276.52 -228.02)"/><path d="M498.27,276.89h-3.83v5h3.22a5.3,5.3,0,0,0,2.35-.38,1.28,1.28,0,0,0,.7-1.21v-1.51a1.79,1.79,0,0,0-.54-1.48A3.1,3.1,0,0,0,498.27,276.89Z" transform="translate(-276.52 -228.02)"/><polygon points="201.57 42.06 199.19 49.14 204.06 49.14 201.68 42.06 201.57 42.06"/><path d="M276.52,228V367.61l44.24-44.24H565V228Zm42.07,41.51h-8v15.6H306V266.31h12.56ZM338.65,280a4.43,4.43,0,0,1-.82,2.69,5.06,5.06,0,0,1-2.28,1.72,15.77,15.77,0,0,1-5.86,1,19.73,19.73,0,0,1-2.88-.2,16,16,0,0,1-2.74-.7,4.8,4.8,0,0,1-2.41-1.7,4.64,4.64,0,0,1-.87-2.85v-8.24a5,5,0,0,1,.62-2.49A4.92,4.92,0,0,1,323,267.5a8.42,8.42,0,0,1,2.15-.93,11.17,11.17,0,0,1,2.38-.46c.67-.06,1.39-.09,2.14-.09a22.28,22.28,0,0,1,2.32.1,15.37,15.37,0,0,1,2.21.42,8.6,8.6,0,0,1,2.29,1,4.64,4.64,0,0,1,1.51,1.62,5,5,0,0,1,.63,2.58ZM357,269.53h-5.77v15.6h-4.52v-15.6h-5.8v-3.22H357ZM377,280a4.37,4.37,0,0,1-.83,2.69,5.08,5.08,0,0,1-2.27,1.72,15.77,15.77,0,0,1-5.86,1,19.87,19.87,0,0,1-2.89-.2,16,16,0,0,1-2.74-.7,4.81,4.81,0,0,1-2.4-1.7,4.64,4.64,0,0,1-.87-2.85v-8.24a4.9,4.9,0,0,1,.62-2.49,4.83,4.83,0,0,1,1.61-1.74,8.42,8.42,0,0,1,2.15-.93,11.21,11.21,0,0,1,2.37-.46c.68-.06,1.4-.09,2.15-.09a22.41,22.41,0,0,1,2.32.1,15.26,15.26,0,0,1,2.2.42,8.68,8.68,0,0,1,2.3,1,4.61,4.61,0,0,1,1.5,1.62,4.94,4.94,0,0,1,.64,2.58Zm19,.95a3.37,3.37,0,0,1-1.83,3.25,12.67,12.67,0,0,1-5.65,1h-7.83V266.31h7.62a17,17,0,0,1,4.16.39,3.58,3.58,0,0,1,2.08,1.25,4.1,4.1,0,0,1,.61,2.39v2.32a2.19,2.19,0,0,1-.63,1.48,3.28,3.28,0,0,1-1.46,1v.14a3.53,3.53,0,0,1,2,.94A2.46,2.46,0,0,1,396,278Zm21.44-4.55a10.13,10.13,0,0,1,1.9,2.61l3.34,6.15h-5.08l-3.07-5.54a7.79,7.79,0,0,0-1.18-1.67,3,3,0,0,0-1.26-.77,6.78,6.78,0,0,0-1.8-.2v8.18h-4.52V266.31h4.52v7.42a3.9,3.9,0,0,0,2.06-.48,6.07,6.07,0,0,0,1.71-1.84l3.54-5.1h5.08L418.61,272a12,12,0,0,1-1.7,2,6.16,6.16,0,0,1-1.9,1.12v.05A5.38,5.38,0,0,1,417.43,276.37Zm28.41,8.41a29.88,29.88,0,0,1-6.09.64,19.4,19.4,0,0,1-2.28-.12,14.52,14.52,0,0,1-2.19-.43,7.63,7.63,0,0,1-2.2-.91,4.77,4.77,0,0,1-2.06-4V271.7q0-5.68,8.73-5.68a36.87,36.87,0,0,1,6,.64v3.39a25.63,25.63,0,0,0-5.91-.81c-.72,0-1.28,0-1.67.06a4.38,4.38,0,0,0-1.23.29,2,2,0,0,0-1.37,2.05v8q0,2.55,4.67,2.55a26.83,26.83,0,0,0,5.63-.84Zm20.65.35H462V269.5h-5.07v2.61a27.76,27.76,0,0,1-1,8.29,7.26,7.26,0,0,1-2.53,4,6.6,6.6,0,0,1-3.67,1,4.94,4.94,0,0,1-1-.1c-.35-.07-.6-.11-.76-.13v-3.54a8.06,8.06,0,0,0,1.08.09,2.93,2.93,0,0,0,2.23-.83,6.44,6.44,0,0,0,1.15-3.29,56.56,56.56,0,0,0,.36-7.48v-3.77h13.69Zm16.76,0-1.69-5h-6.87l-1.65,5h-4.47l7-18.82H481l6.79,18.82Zm22-4.21a3.37,3.37,0,0,1-1.83,3.25,12.67,12.67,0,0,1-5.65,1h-7.83V266.31h7.62a17.16,17.16,0,0,1,4.17.39,3.58,3.58,0,0,1,2.07,1.25,4,4,0,0,1,.61,2.39v2.32a2.19,2.19,0,0,1-.63,1.48,3.28,3.28,0,0,1-1.46,1v.14a3.56,3.56,0,0,1,2,.94,2.48,2.48,0,0,1,.91,1.84ZM523,285.13H508.33V266.31h14.36v3.22h-9.83v4.32h8.87v3.22h-8.87v4.84H523Zm10.49,0H529v-4h4.52Zm4.7-12.38a2.66,2.66,0,0,1-.48,1.52,4.48,4.48,0,0,1-1.26,1.23c-.65.43-1.15.74-1.48.93-1.18.73-1.77,1.38-1.77,1.94v1.31h-3.94V278a4,4,0,0,1,.44-1.9,3.71,3.71,0,0,1,1.16-1.35c.34-.25.79-.54,1.33-.87,1.06-.66,1.59-1.38,1.59-2.18v-1.36a1.12,1.12,0,0,0-.55-1.1,5.63,5.63,0,0,0-2.29-.29,49.45,49.45,0,0,0-5.77.69v-3.16a50,50,0,0,1,6.32-.46c1,0,1.79,0,2.4.07a9,9,0,0,1,1.75.31,4,4,0,0,1,1.39.68,2.93,2.93,0,0,1,.84,1.14,4.42,4.42,0,0,1,.32,1.74Z" transform="translate(-276.52 -228.02)"/><path d="M389,276.89H385.2v5h3.22a5.32,5.32,0,0,0,2.35-.38,1.27,1.27,0,0,0,.69-1.21v-1.51a1.82,1.82,0,0,0-.53-1.48A3.1,3.1,0,0,0,389,276.89Z" transform="translate(-276.52 -228.02)"/><path d="M333.06,269.8a10.3,10.3,0,0,0-6.67,0,2,2,0,0,0-1.08,1.91V280a1.89,1.89,0,0,0,.38,1.2,2,2,0,0,0,1.1.68,7.93,7.93,0,0,0,1.35.28,18.55,18.55,0,0,0,3.22,0,7.55,7.55,0,0,0,1.35-.28,1.81,1.81,0,0,0,1.42-1.88V271.7A2,2,0,0,0,333.06,269.8Z" transform="translate(-276.52 -228.02)"/><path d="M371.42,269.8a7.54,7.54,0,0,0-3.33-.56,7.64,7.64,0,0,0-3.34.55,2,2,0,0,0-1.07,1.91V280a1.89,1.89,0,0,0,.38,1.2,2,2,0,0,0,1.1.68,7.55,7.55,0,0,0,1.35.28,18.55,18.55,0,0,0,3.22,0,7.93,7.93,0,0,0,1.35-.28,1.92,1.92,0,0,0,1.05-.68,1.89,1.89,0,0,0,.37-1.2V271.7A2,2,0,0,0,371.42,269.8Z" transform="translate(-276.52 -228.02)"/></svg>