<svg xmlns="http://www.w3.org/2000/svg" width="16" height="16"><defs><path d="M8 1c0.4 0 0.7 1l5.7 5.7a0.9 0 1 1-1.2 1.2L8 3 2.5 8.5a0.9 0 1 1-1.2-1.2l5.7-5.7C7.3 1.2 7.6 1 8 1zm0 6c0.4 0 0.7 1l5.7 5.7a0.9 0 1 1-1.2 1.2L8 9l-5.5 5.5a0.9 0 1 1-1.2-1.2l5.7-5.7C7.3 7.2 7.6 7 8 7z"/></defs><g fill="none"><path d="M-540-538H826v768H-540z"/><g opacity="0.3"><path d="M0 0h16v16H0z"/><mask fill="#fff"><use xlink:href="#a"/></mask><use xlink:href="#a"/><g mask="url(#b)" fill="#333"><path d="M-82-57H98V73H-82z"/></g></g></g></svg>